<?xml version="1.0" encoding="UTF-8" standalone="no"?>
<!-- Created with Inkscape (http://www.inkscape.org/) -->

<svg
   width="260"
   height="260"
   viewBox="0 0 68.791665 68.791666"
   version="1.1"
   id="svg1"
   xml:space="preserve"
   xmlns="http://www.w3.org/2000/svg"
   xmlns:svg="http://www.w3.org/2000/svg">
  <linearGradient id="gradient" x2="0" y2="0.8">
    <stop offset="0%" stop-color="#ff0000" />
    <stop offset="50%" stop-color="#fffb00" />
    <stop offset="100%" stop-color="#4c67ff" />
  </linearGradient>
   <defs
     id="defs1" /><g
     id="layer1"><g
       id="g1"
       transform="matrix(2.985984,0,0,2.985984,-66.987559,-49.96759)"><path
         style="fill:url(#gradient) #4c67ff;"
         d="m 30.046788,37.33128 c -3.387032,-0.130192 -4.295282,-0.207847 -4.670636,-0.399338 -0.637988,-0.325477 -1.04625,-1.059786 -1.058163,-1.903236 -0.01114,-0.788485 0.140426,-1.229242 0.562168,-1.634829 0.566316,-0.544624 1.239379,-0.836821 1.92646,-0.836337 0.539668,3.81e-4 0.574851,-0.01172 0.664691,-0.228613 0.162557,-0.392449 0.927615,-1.041451 1.464466,-1.242312 0.736021,-0.275381 1.597039,-0.368332 2.21168,-0.238762 l 0.508,0.10709 0.557597,-0.511236 c 0.369605,-0.338873 0.754965,-0.595297 1.143,-0.760567 0.521162,-0.221971 0.678314,-0.248856 1.43207,-0.244986 1.69662,0.0087 2.427854,0.511231 3.059714,2.102698 0.513387,1.293069 0.441122,2.963494 -0.181346,4.191876 -0.37249,0.735072 -1.29045,1.274837 -2.511606,1.476834 -0.972803,0.160917 -2.896071,0.206745 -5.108095,0.121718 z m 11.752903,-0.832928 c -0.543652,-0.331488 -0.631652,-0.939248 -0.224911,-1.553316 0.136447,-0.205996 0.29952,-0.530389 0.362385,-0.720873 0.06287,-0.190484 0.225625,-0.45299 0.361688,-0.583346 0.203339,-0.194812 0.32256,-0.237012 0.669591,-0.237012 0.408579,0 0.439526,0.01784 0.958966,0.552806 0.790847,0.814486 0.892915,1.432012 0.32977,1.995157 -0.677545,0.677544 -1.82438,0.932619 -2.457489,0.546584 z M 39.049435,35.72987 c -0.509372,-0.269073 -0.705314,-0.623091 -0.705314,-1.274322 0,-0.469176 0.03471,-0.602576 0.220284,-0.846667 0.34346,-0.451756 0.477426,-0.760711 0.5861,-1.351672 0.253759,-1.379923 -0.472036,-3.663324 -1.381258,-4.345531 -1.028547,-0.771738 -2.533309,-1.167957 -4.175644,-1.099487 -1.619641,0.06752 -2.568086,0.323984 -3.466668,0.93739 -0.89222,0.609064 -1.322887,1.23103 -1.903185,2.74857 -0.226948,0.59349 -0.474737,1.173859 -0.550644,1.289706 -0.17752,0.27093 -0.770513,0.557615 -1.153399,0.557615 -0.470021,0 -1.004103,-0.330582 -1.238287,-0.766465 -0.270655,-0.503766 -0.22027,-1.058927 0.19006,-2.094174 0.348448,-0.879122 0.358127,-1.172764 0.02106,-0.638809 -0.292934,0.464038 -0.532365,0.620781 -0.948266,0.620781 -0.837891,0 -1.290924,-0.709898 -1.372517,-2.150723 -0.04911,-0.86727 -0.04897,-0.868113 0.19561,-1.141158 0.346024,-0.386298 0.795484,-0.472166 1.579555,-0.301768 0.336895,0.07321 0.7183,0.17382 0.847567,0.223566 0.333894,0.128493 0.57903,0.511804 0.584582,0.914094 0.0026,0.186627 0.01745,0.339323 0.03306,0.339323 0.01561,0 0.09076,-0.131453 0.166998,-0.292116 0.07624,-0.160664 0.265871,-0.389177 0.421402,-0.507806 0.155531,-0.11863 0.364278,-0.330137 0.46388,-0.470016 l 0.181097,-0.254327 -0.23773,0.09039 c -0.349165,0.132753 -0.80909,0.117467 -1.107418,-0.0368 -0.287416,-0.148629 -0.477262,-0.56324 -0.736637,-1.608766 -0.433148,-1.745998 0.629785,-2.49516 2.332786,-1.64416 1.280366,0.639807 1.542241,1.404978 0.793546,2.318662 -0.168082,0.205121 -0.273969,0.372948 -0.235304,0.372948 0.03866,0 0.267307,-0.132674 0.508096,-0.294831 0.551638,-0.371494 0.926213,-0.513216 2.142275,-0.810534 0.641896,-0.156939 1.40641,-0.268514 2.243667,-0.327444 1.213797,-0.08543 1.314962,-0.08001 2.285999,0.122608 0.5588,0.116599 1.2065,0.273834 1.439334,0.349412 0.689829,0.22392 1.948696,0.837082 2.354072,1.14661 1.626013,1.241554 2.686302,3.742838 2.691163,6.348613 0.0029,1.580224 -0.918914,3.544624 -1.846349,3.934397 -0.378707,0.159159 -0.856379,0.136868 -1.223572,-0.0571 z m 3.850119,-3.211339 c -0.148811,-0.09074 -0.330756,-0.256836 -0.40432,-0.36911 -0.167394,-0.255475 -0.229554,-1.430796 -0.09712,-1.836426 0.177297,-0.543054 0.901111,-0.834032 1.3943,-0.560518 0.109426,0.06069 0.385651,0.32912 0.613834,0.596521 0.375157,0.439639 0.414876,0.526237 0.414876,0.904554 0,0.37371 -0.03794,0.459533 -0.355441,0.803979 -0.593681,0.644067 -1.047028,0.777513 -1.566125,0.461 z m -0.5761,-3.548786 c -0.341723,-0.212246 -1.264777,-2.002367 -1.252673,-2.429366 0.01661,-0.58613 0.365965,-0.865224 1.295006,-1.034572 0.677335,-0.123466 1.373197,0.01322 1.692413,0.332437 0.299439,0.299439 0.406303,0.76465 0.258631,1.125902 -0.05823,0.142446 -0.161118,0.483572 -0.228643,0.758059 -0.24608,1.000297 -0.601778,1.40633 -1.231363,1.405617 -0.153654,-1.74e-4 -0.393671,-0.07131 -0.533371,-0.158077 z m -2.67388,-3.651606 c -0.333591,-0.2794 -0.642424,-0.508 -0.686296,-0.508 -0.04387,0 -0.269666,-0.08169 -0.501766,-0.18154 -0.623035,-0.268022 -0.8411,-0.804157 -0.58175,-1.430285 0.09287,-0.224195 0.2561,-0.337719 0.980694,-0.682039 1.415563,-0.672661 1.792439,-0.719389 2.307389,-0.286086 0.40638,0.341945 0.563129,0.872839 0.56176,1.902617 -0.0017,1.27739 -0.265143,1.693333 -1.072499,1.693333 -0.366278,0 -0.453525,-0.04399 -1.007532,-0.508 z m -9.557521,-1.297984 c -0.171041,-0.05772 -0.375337,-0.220872 -0.489869,-0.391208 -0.180515,-0.268467 -0.192128,-0.350961 -0.143027,-1.016 0.07702,-1.043228 0.171103,-1.331329 0.572884,-1.754361 0.43541,-0.458439 0.803908,-0.544582 1.383198,-0.323349 0.498979,0.190561 0.970967,0.616547 1.403304,1.26653 0.397178,0.597124 0.480729,1.004276 0.284111,1.384493 -0.16192,0.31312 -0.482622,0.497677 -0.993812,0.57192 -0.202797,0.02945 -0.578271,0.102765 -0.834388,0.162915 -0.829314,0.194768 -0.884982,0.199432 -1.182401,0.09906 z m 6.093068,-0.137687 c -0.116417,-0.0393 -0.364067,-0.0767 -0.550334,-0.08311 -0.186266,-0.0064 -0.586316,-0.118156 -0.888999,-0.248317 -0.866855,-0.372767 -1.124477,-0.907467 -0.771747,-1.601774 0.08777,-0.17277 0.227418,-0.556795 0.310323,-0.853389 0.281303,-1.006368 0.987671,-1.636674 1.668217,-1.488583 0.408806,0.08896 0.582349,0.240462 0.909873,0.794313 0.162983,0.275609 0.42625,0.719288 0.585037,0.985953 0.238703,0.400874 0.294614,0.588941 0.322824,1.085879 0.03715,0.654468 -0.102702,1.008388 -0.501652,1.269487 -0.245552,0.160705 -0.806746,0.232978 -1.083542,0.139541 z"
         id="path7" /><path
         style="fill:url(#gradient) #4c67ff;"
         d="m 31.316788,37.287994 c -0.2794,-0.01412 -1.5748,-0.06801 -2.878667,-0.119757 -1.303866,-0.05174 -2.536939,-0.134949 -2.740162,-0.184905 -0.427178,-0.105008 -0.854856,-0.492815 -1.122892,-1.018208 -0.263761,-0.517015 -0.260746,-1.492544 0.0063,-2.044228 0.359392,-0.742404 1.495768,-1.370438 2.354165,-1.301062 l 0.444764,0.03595 0.208167,-0.355209 c 0.427207,-0.728974 1.076134,-1.137172 2.155485,-1.355877 0.597528,-0.121075 0.794215,-0.126751 1.357228,-0.03917 l 0.658431,0.102427 0.390375,-0.417343 c 0.890341,-0.951846 2.31912,-1.339789 3.657497,-0.993086 0.966234,0.250301 1.518258,0.812148 1.992816,2.028279 0.361058,0.925269 0.424866,2.207517 0.155314,3.121088 -0.429727,1.456439 -1.11913,2.069936 -2.659508,2.366684 -0.656216,0.126417 -2.944657,0.226721 -3.979333,0.174417 z m 10.486228,-0.872286 c -0.47329,-0.288595 -0.560508,-1.110601 -0.153666,-1.44825 0.06686,-0.05549 0.204007,-0.326991 0.304767,-0.603335 0.253116,-0.694193 0.696458,-1.013614 1.223318,-0.881381 0.320763,0.08051 1.051592,0.796607 1.23696,1.212031 0.293302,0.657316 0.09355,1.089747 -0.731294,1.583142 -0.439998,0.263193 -0.572591,0.30085 -1.058333,0.300574 -0.398046,-2.27e-4 -0.630771,-0.04633 -0.821752,-0.162781 z M 39.076423,35.67317 c -0.428054,-0.210903 -0.709507,-0.692897 -0.709507,-1.215041 0,-0.353668 0.05366,-0.511139 0.296473,-0.870073 0.407643,-0.602582 0.447999,-0.697951 0.566042,-1.337662 0.08636,-0.468012 0.08133,-0.700037 -0.03044,-1.40303 -0.220514,-1.387022 -0.592267,-2.241455 -1.252303,-2.878285 -0.397938,-0.383946 -1.617369,-0.917282 -2.54884,-1.114771 -0.699721,-0.148355 -0.941958,-0.15999 -2.014868,-0.09678 -2.787676,0.164238 -4.25215,1.120969 -5.074262,3.314978 -0.532339,1.420679 -0.605533,1.57847 -0.828668,1.786448 -0.333779,0.311106 -0.553085,0.401849 -0.971176,0.401849 -0.440624,0 -0.846726,-0.240633 -1.146496,-0.679348 -0.176467,-0.258259 -0.195594,-0.361744 -0.156115,-0.844652 0.02765,-0.338217 0.147261,-0.795082 0.310329,-1.185333 0.145935,-0.34925 0.315389,-0.769441 0.376564,-0.933758 0.2913,-0.782432 0.820653,-1.672669 1.225755,-2.061405 0.236615,-0.227056 0.430209,-0.439798 0.430209,-0.47276 0,-0.103034 1.93988,-1.358077 2.099138,-1.358077 0.05372,0 0.26061,-0.07317 0.459764,-0.162611 0.591094,-0.265449 1.801417,-0.493809 3.172153,-0.598511 1.200367,-0.09169 1.347037,-0.08619 2.201333,0.08246 1.212256,0.23933 1.836434,0.443868 2.904945,0.951927 0.777655,0.369762 0.974602,0.510106 1.572465,1.120536 0.965648,0.985947 1.637876,2.339544 1.895371,3.816518 0.208819,1.197773 0.250248,2.146751 0.120818,2.7675 -0.237037,1.136839 -0.598222,1.940796 -1.158705,2.579152 -0.460979,0.525025 -1.152313,0.680268 -1.73998,0.390722 z m 3.823934,-3.238817 c -0.381579,-0.232666 -0.471532,-0.453723 -0.498443,-1.224918 -0.02801,-0.802741 0.09589,-1.167203 0.460999,-1.356006 0.539687,-0.279083 0.908341,-0.148891 1.482256,0.523468 0.584039,0.684219 0.590618,1.110317 0.02626,1.700632 -0.516553,0.540311 -0.984136,0.653728 -1.47107,0.356824 z M 24.299555,29.372966 c -0.584973,-0.160139 -0.920759,-0.745091 -1.069029,-1.862292 -0.08116,-0.611524 -0.07642,-0.776965 0.02955,-1.030582 0.244405,-0.584944 0.75815,-0.7359 1.76449,-0.518467 0.755268,0.163185 1.191849,0.449825 1.291824,0.848155 0.08162,0.325199 -0.256114,1.248343 -0.617203,1.687032 -0.169988,0.206519 -0.385269,0.47194 -0.478402,0.589824 -0.203715,0.257854 -0.588444,0.377432 -0.921233,0.28633 z m 18.002452,-0.536578 c -0.136556,-0.114904 -0.46524,-0.644272 -0.738396,-1.189234 -0.476205,-0.950059 -0.489009,-0.993099 -0.391889,-1.317258 0.126367,-0.421776 0.353319,-0.570291 1.111188,-0.727149 0.837542,-0.173348 1.408404,-0.05558 1.779532,0.367111 0.227698,0.259333 0.260453,0.352836 0.228069,0.651052 -0.0208,0.191526 -0.08088,0.462529 -0.133512,0.602229 -0.05263,0.1397 -0.156401,0.479947 -0.230593,0.756104 -0.259628,0.966387 -1.018613,1.36688 -1.624399,0.857145 z M 26.476012,25.872947 c -0.362503,-0.159049 -0.486648,-0.373945 -0.752681,-1.302893 -0.305889,-1.068122 -0.266058,-1.541951 0.162648,-1.93483 0.261144,-0.239321 0.368081,-0.280418 0.729657,-0.280418 1.048856,0 2.457485,0.943113 2.457485,1.645348 0,0.470128 -0.631225,1.220751 -1.384591,1.64649 -0.557078,0.314814 -0.875383,0.374222 -1.212518,0.226303 z m 13.960849,-0.120856 c -0.106293,-0.02912 -0.455205,-0.257901 -0.77536,-0.508393 -0.320155,-0.250493 -0.782101,-0.536243 -1.026547,-0.635 -0.51786,-0.209218 -0.790367,-0.530253 -0.790367,-0.931115 0,-0.48273 0.225959,-0.703713 1.197664,-1.171289 1.063209,-0.511608 1.530224,-0.588894 1.953463,-0.323277 0.463066,0.290613 0.644339,0.812665 0.647628,1.865122 0.003,0.959111 -0.0998,1.349408 -0.40795,1.548813 -0.243729,0.157719 -0.562842,0.219717 -0.798531,0.155139 z M 30.0311,23.924216 c -0.469426,-0.204167 -0.563733,-0.518559 -0.463652,-1.545679 0.07057,-0.724265 0.12677,-0.947362 0.307404,-1.220319 0.712708,-1.076973 1.86908,-0.806448 2.869575,0.671316 0.501103,0.740145 0.526761,1.085471 0.111505,1.500727 -0.182016,0.182016 -0.39851,0.300495 -0.613833,0.335928 -0.182955,0.03011 -0.661211,0.128362 -1.062792,0.218345 -0.854541,0.191478 -0.803268,0.189706 -1.148207,0.03968 z m 6.111687,-0.130077 c -0.09313,-0.04002 -0.332847,-0.07544 -0.532697,-0.07872 -0.527893,-0.0086 -1.416775,-0.444633 -1.590185,-0.779971 -0.17056,-0.329826 -0.134075,-0.564107 0.253474,-1.627626 0.470587,-1.291393 0.964309,-1.763637 1.699628,-1.62569 0.390329,0.07323 0.830133,0.64143 1.539165,1.988519 0.260456,0.494839 0.272306,1.279178 0.02544,1.684079 -0.263251,0.431784 -0.926406,0.640693 -1.39483,0.439405 z"
         id="path6" /><path
         style="fill:url(#gradient) #4c67ff;"
         d="m 29.665788,37.208318 c -0.116417,-0.01961 -1.020299,-0.0695 -2.008627,-0.110873 -2.110326,-0.08833 -2.393365,-0.174989 -2.870861,-0.878967 -0.46335,-0.683123 -0.477485,-1.89156 -0.02948,-2.52072 0.43507,-0.610999 1.615594,-1.140284 2.326096,-1.042899 0.350318,0.04802 0.383232,0.03586 0.4617,-0.170526 0.122597,-0.322455 0.750006,-0.973667 1.119871,-1.162358 0.723879,-0.369295 1.903932,-0.51078 2.663965,-0.319401 l 0.382978,0.09643 0.480014,-0.469207 c 0.264008,-0.258064 0.727664,-0.596734 1.030348,-0.752601 0.537817,-0.27695 0.574402,-0.283395 1.608666,-0.283395 1.03463,0 1.069747,0.0062 1.567933,0.276534 0.616708,0.334656 1.10207,0.998714 1.4331,1.960726 0.181487,0.527421 0.2163,0.780679 0.2163,1.573517 0,2.154331 -0.79451,3.254904 -2.628193,3.640632 -0.422415,0.08886 -1.331023,0.136929 -3.071023,0.162478 -1.359114,0.01996 -2.566367,0.02024 -2.682783,6.26e-4 z m 12.308695,-0.746519 c -0.582311,-0.263688 -0.710217,-0.881923 -0.300777,-1.453814 0.131589,-0.183799 0.306033,-0.514745 0.387655,-0.735436 0.187125,-0.505955 0.477538,-0.741744 0.913579,-0.741744 0.284654,0 0.399551,0.06359 0.80109,0.443346 0.539946,0.510659 0.706552,0.789618 0.706107,1.182283 -4.65e-4,0.410858 -0.252938,0.750367 -0.802415,1.079038 -0.56409,0.33741 -1.256873,0.42936 -1.705239,0.226327 z M 39.275454,35.69012 c -0.612096,-0.215534 -0.983201,-0.862808 -0.85686,-1.494515 0.02866,-0.143299 0.184519,-0.440922 0.346353,-0.661385 0.648874,-0.883943 0.716877,-2.16974 0.206693,-3.908141 -0.193446,-0.659148 -0.703767,-1.486701 -1.105972,-1.793477 -0.445698,-0.339951 -1.495134,-0.805383 -2.146214,-0.951861 -0.325967,-0.07334 -0.715584,-0.165327 -0.865816,-0.204425 -0.24942,-0.06491 -1.747756,0.0077 -2.62744,0.127379 -0.897001,0.122007 -2.077567,0.669709 -2.714967,1.259558 -0.505528,0.467814 -1.012521,1.342077 -1.424959,2.457211 -0.441948,1.194921 -0.67381,1.510086 -1.218931,1.656872 -0.677661,0.182475 -1.419692,-0.247247 -1.603103,-0.928384 -0.115909,-0.430454 -0.0036,-0.936773 0.454649,-2.05021 0.604157,-1.467864 1.014333,-2.184476 1.59228,-2.781849 0.515218,-0.532536 0.665351,-0.647048 1.673239,-1.276245 1.04499,-0.652359 2.309577,-0.978719 4.279715,-1.104495 1.352357,-0.08634 1.494678,-0.08068 2.355217,0.09352 1.178867,0.238641 1.80238,0.441369 2.640116,0.858403 0.949622,0.472732 1.368774,0.779609 1.905,1.394728 1.066619,1.223545 1.689305,2.946865 1.833266,5.073672 0.113833,1.681714 -0.758845,3.733998 -1.786208,4.200641 -0.408716,0.185644 -0.494038,0.188653 -0.936058,0.03301 z m 3.802819,-3.210994 c -0.50331,-0.219142 -0.627819,-0.487647 -0.627819,-1.3539 0,-0.880583 0.09308,-1.091825 0.568659,-1.290534 0.439684,-0.183712 0.765008,-0.03799 1.283226,0.5748 0.361399,0.427351 0.434115,0.568984 0.434115,0.84555 0,0.272966 -0.06417,0.402053 -0.359834,0.72382 -0.313657,0.341354 -0.763979,0.627654 -0.970947,0.617296 -0.03642,-0.0018 -0.183751,-0.05449 -0.3274,-0.117032 z M 24.012896,29.191639 c -0.477478,-0.331759 -0.768918,-1.21817 -0.779004,-2.369331 -0.0041,-0.465071 0.347691,-0.829879 0.855389,-0.887104 0.433232,-0.04883 1.505263,0.165476 1.802721,0.360378 0.223318,0.146323 0.387119,0.467814 0.387119,0.759793 0,0.45967 -0.475458,1.297668 -1.1557,2.036925 -0.323716,0.351801 -0.698873,0.38536 -1.110525,0.09934 z M 42.428071,28.909741 C 42.274289,28.826328 42.0829,28.558902 41.870007,28.129964 41.691799,27.77091 41.463889,27.343789 41.36354,27.180805 c -0.367404,-0.596724 -0.158537,-1.234964 0.474404,-1.449652 0.423466,-0.143636 1.519116,-0.144984 1.857216,-0.0023 0.526398,0.222173 0.707433,0.759584 0.45109,1.339088 -0.09449,0.213606 -0.171796,0.456341 -0.171796,0.539411 0,0.08307 -0.08337,0.368898 -0.185268,0.635173 -0.275939,0.721072 -0.793799,0.97492 -1.361115,0.667201 z m -16.134957,-3.21182 c -0.168065,-0.141418 -0.301095,-0.37591 -0.396265,-0.6985 -0.0788,-0.267089 -0.17742,-0.596076 -0.219164,-0.731083 -0.114875,-0.371531 -0.09093,-1.130868 0.04388,-1.391564 0.244083,-0.472005 1.00131,-0.616902 1.72036,-0.329195 0.568535,0.227483 1.281169,0.725001 1.418291,0.990165 0.313232,0.605725 -0.02446,1.31005 -0.909785,1.897546 -0.811772,0.538685 -1.247235,0.607692 -1.657317,0.262631 z m 13.819655,-0.178795 c -0.181123,-0.122291 -0.467004,-0.346106 -0.63529,-0.497368 -0.168287,-0.151262 -0.500537,-0.339644 -0.738334,-0.418628 -0.772636,-0.256628 -1.089735,-0.918306 -0.686037,-1.431526 0.187962,-0.238954 1.498429,-0.906058 2.095145,-1.06655 0.312161,-0.08396 0.409107,-0.07607 0.671869,0.05465 0.430428,0.214138 0.594772,0.479842 0.749091,1.211101 0.221513,1.049664 0.02837,1.984177 -0.462551,2.238043 -0.36376,0.188107 -0.616146,0.165323 -0.993893,-0.08972 z M 29.929683,23.825407 c -0.33696,-0.236016 -0.423481,-0.581268 -0.347321,-1.385935 0.07915,-0.836231 0.149597,-1.04974 0.473311,-1.434451 0.578718,-0.687769 1.32175,-0.603266 2.150115,0.244525 0.256116,0.262123 0.574023,0.692339 0.706459,0.956036 0.217418,0.432908 0.231067,0.508915 0.14061,0.783002 -0.139598,0.422987 -0.347045,0.529616 -1.492472,0.767141 -1.181487,0.245003 -1.368959,0.253014 -1.630702,0.06968 z m 5.662771,-0.15301 c -0.820145,-0.153134 -1.364011,-0.445718 -1.554871,-0.836476 l -0.157872,-0.323219 0.255845,-0.650448 c 0.140714,-0.357747 0.297544,-0.80715 0.348509,-0.998675 0.05458,-0.205117 0.24292,-0.509575 0.458278,-0.740833 0.321027,-0.34473 0.408285,-0.392607 0.715544,-0.392607 0.533275,0 0.760792,0.149394 1.087689,0.714204 0.163448,0.282404 0.424118,0.717066 0.579266,0.965914 0.503215,0.807126 0.481644,1.721084 -0.0512,2.169444 -0.291773,0.245511 -0.732576,0.269816 -1.681186,0.0927 z"
         id="path5" /><path
         style="fill:url(#gradient) #4c67ff;"
         d="m 31.232121,37.201852 c -0.325967,-0.01392 -1.583267,-0.06657 -2.794,-0.116997 -2.560177,-0.106643 -2.755107,-0.129895 -3.116137,-0.371699 -0.703695,-0.47131 -1.009933,-1.401214 -0.783133,-2.378018 0.100874,-0.434453 0.180054,-0.565279 0.546913,-0.903635 0.571853,-0.527424 1.234041,-0.779123 1.896834,-0.72099 0.471752,0.04138 0.495256,0.03395 0.576317,-0.182119 0.11302,-0.301255 0.805864,-1.005304 1.179755,-1.198834 0.724754,-0.37514 2.106828,-0.497653 2.76994,-0.245538 0.178195,0.06775 0.257045,0.02071 0.648962,-0.387184 0.310391,-0.323042 0.649624,-0.561468 1.115002,-0.783668 0.642207,-0.306629 0.704331,-0.319365 1.55788,-0.319365 0.81916,0 0.932644,0.02068 1.444542,0.263251 0.671517,0.318207 1.068015,0.807632 1.45052,1.790477 0.472651,1.214475 0.394621,2.858283 -0.190253,4.007955 -0.328467,0.645657 -1.159342,1.156183 -2.239933,1.376312 -0.58935,0.120058 -2.934883,0.218222 -4.063209,0.170052 z m 10.523093,-0.953049 c -0.356069,-0.318148 -0.377408,-0.761162 -0.05759,-1.195586 0.119344,-0.16211 0.285502,-0.480818 0.369238,-0.708241 0.241307,-0.655373 0.601729,-0.903864 1.124423,-0.775227 0.296142,0.07288 1.087922,0.914095 1.210787,1.286379 0.263407,0.79813 -0.669743,1.63801 -1.819911,1.63801 -0.489794,0 -0.583478,-0.02779 -0.826949,-0.245335 z m -2.692288,-0.707165 c -0.455962,-0.310325 -0.611344,-0.584016 -0.611344,-1.076825 0,-0.351207 0.05031,-0.50931 0.252098,-0.792224 0.378206,-0.530261 0.496229,-0.805316 0.610247,-1.422195 0.08688,-0.470046 0.08155,-0.699717 -0.03296,-1.419936 -0.177015,-1.113416 -0.43427,-1.806769 -0.926086,-2.495988 -0.36993,-0.51841 -0.45786,-0.586628 -1.262527,-0.979493 -1.269616,-0.619868 -2.118471,-0.775912 -3.709377,-0.68189 -1.581613,0.09347 -2.218184,0.258772 -3.163446,0.821453 -0.612385,0.364532 -1.02893,0.738102 -1.207883,1.083265 -0.07243,0.1397 -0.21668,0.355877 -0.320558,0.480394 -0.103878,0.124516 -0.368056,0.715066 -0.587061,1.312333 -0.459168,1.252237 -0.550446,1.415067 -0.919345,1.639999 -0.571475,0.34845 -1.387592,0.140775 -1.758392,-0.447452 -0.357274,-0.566768 -0.0437,-1.773451 0.99441,-3.826691 0.431313,-0.853074 1.278791,-1.7809 2.017415,-2.208681 0.232833,-0.134847 0.571925,-0.351465 0.753537,-0.481372 0.181611,-0.129908 0.380617,-0.236196 0.442235,-0.236196 0.06162,0 0.274976,-0.07317 0.47413,-0.162611 0.599709,-0.269318 1.810225,-0.495338 3.198431,-0.597193 1.268336,-0.09306 1.346897,-0.08916 2.343262,0.11645 1.432219,0.295545 2.930456,0.897544 3.768632,1.514253 0.439093,0.323075 1.236913,1.333353 1.58053,2.001425 0.534428,1.039051 0.789802,2.013667 0.936694,3.574816 0.07153,0.760264 0.06017,0.957705 -0.09361,1.625583 -0.216714,0.941235 -0.491348,1.57597 -0.927336,2.143266 -0.544747,0.708808 -1.270725,0.910919 -1.851701,0.51551 z m 3.748711,-3.314284 -0.313664,-0.287452 -0.0026,-0.82013 -0.0026,-0.82013 0.276503,-0.247085 c 0.425073,-0.379849 0.771737,-0.342508 1.285997,0.138522 0.49463,0.462669 0.713981,0.880914 0.639603,1.219557 -0.03043,0.138522 -0.248653,0.42734 -0.508788,0.673365 -0.578461,0.547084 -0.897598,0.580369 -1.374465,0.143353 z M 24.301524,29.288826 c -0.548138,-0.150083 -0.83606,-0.663046 -0.984285,-1.753604 -0.188252,-1.385054 0.271658,-1.796933 1.668562,-1.494306 0.773622,0.167599 0.986988,0.2851 1.173841,0.646434 0.117103,0.226452 0.122362,0.319452 0.03466,0.613036 -0.138157,0.462497 -0.397137,0.964062 -0.667411,1.292571 -0.121792,0.148033 -0.278589,0.348845 -0.348439,0.44625 -0.159253,0.222074 -0.560445,0.336274 -0.876931,0.249619 z M 42.381665,28.82493 c -0.105124,-0.07363 -0.338841,-0.426056 -0.519372,-0.783167 -0.180532,-0.35711 -0.41112,-0.80988 -0.512418,-1.006156 -0.33396,-0.647079 -0.02966,-1.162527 0.780373,-1.321874 1.617081,-0.318105 2.39459,0.286047 1.94252,1.509406 -0.05162,0.1397 -0.159651,0.4826 -0.240061,0.762 -0.189628,0.658899 -0.491432,0.973666 -0.933568,0.973666 -0.179488,0 -0.412351,-0.06024 -0.517474,-0.133875 z m -15.93321,-3.061299 c -0.262093,-0.131924 -0.32439,-0.232316 -0.539144,-0.868825 -0.557939,-1.653681 -0.29822,-2.455334 0.795479,-2.455334 0.454621,0 1.143386,0.275249 1.648664,0.65885 0.763019,0.579275 0.811423,1.065959 0.175952,1.769138 -0.399693,0.44228 -1.124451,0.913174 -1.530618,0.994483 -0.163051,0.03264 -0.360107,-0.0026 -0.550333,-0.09831 z m 14.012332,-0.08133 c -0.09313,-0.01748 -0.410488,-0.235916 -0.705232,-0.485416 -0.324078,-0.27433 -0.734565,-0.526073 -1.038518,-0.636899 -0.561072,-0.204577 -0.787783,-0.461525 -0.787783,-0.892849 0,-0.46056 0.205093,-0.649735 1.18378,-1.091902 1.173489,-0.530178 1.510891,-0.575576 1.89233,-0.254616 0.15553,0.13087 0.333179,0.358563 0.394776,0.505985 0.155861,0.373028 0.236818,1.281536 0.165245,1.854391 -0.089,0.712357 -0.527287,1.109656 -1.104598,1.001306 z m -10.363504,-1.82591 c -0.111928,-0.05752 -0.278183,-0.205196 -0.369456,-0.328165 -0.154789,-0.208542 -0.160012,-0.284536 -0.07765,-1.129809 0.07481,-0.767811 0.123929,-0.957638 0.321554,-1.242811 0.390745,-0.563847 0.841499,-0.702664 1.453609,-0.447666 0.660332,0.275086 1.627114,1.491652 1.627114,2.047505 0,0.38277 -0.36379,0.752723 -0.812761,0.826529 -0.181631,0.02986 -0.658805,0.12791 -1.060386,0.217893 -0.857505,0.192143 -0.821766,0.190276 -1.082024,0.05652 z m 6.045504,-0.142423 c -0.09313,-0.04249 -0.31467,-0.07994 -0.492304,-0.08321 -0.440829,-0.0081 -1.150099,-0.313029 -1.441782,-0.619806 -0.297754,-0.313161 -0.279979,-0.529572 0.137342,-1.672144 0.351541,-0.962478 0.757812,-1.4882 1.216568,-1.574263 0.479332,-0.08992 0.811823,0.121446 1.170653,0.7442 0.169143,0.293551 0.428991,0.724229 0.57744,0.957063 0.225207,0.353223 0.275,0.523603 0.300659,1.028774 0.02988,0.588293 0.02263,0.614309 -0.256154,0.918509 -0.23244,0.253637 -0.358679,0.319244 -0.664996,0.345604 -0.207951,0.01789 -0.454292,-0.0022 -0.547426,-0.04472 z"
         id="path4" /><path
         style="fill:url(#gradient) #4c67ff;"
         d="m 29.538788,37.121656 c -0.1397,-0.01973 -1.016,-0.06771 -1.947334,-0.106619 -1.411667,-0.05898 -1.757609,-0.0992 -2.079754,-0.241765 -0.903831,-0.400001 -1.291589,-1.811269 -0.788788,-2.870843 0.31188,-0.657239 1.545549,-1.263572 2.369807,-1.164731 0.421608,0.05056 0.434822,0.04549 0.520159,-0.199304 0.332491,-0.953786 1.692626,-1.617782 3.111243,-1.51886 0.372533,0.02598 0.757599,0.07126 0.855702,0.100621 0.139738,0.04182 0.268098,-0.04166 0.592667,-0.385478 0.242092,-0.256449 0.660643,-0.567167 1.006964,-0.747536 0.59003,-0.307296 0.597376,-0.308664 1.651,-0.307628 0.985105,9.69e-4 1.088497,0.01688 1.494267,0.229918 0.627807,0.329617 0.893011,0.678122 1.434979,1.885708 0.11219,0.249975 0.160905,0.619392 0.186016,1.410619 0.02972,0.936331 0.0099,1.148398 -0.156674,1.676174 -0.269767,0.85476 -0.558502,1.262771 -1.138919,1.609404 -0.866981,0.517773 -1.34595,0.588496 -4.264188,0.629633 -1.426231,0.02011 -2.707447,0.02041 -2.847147,6.87e-4 z m 12.431499,-0.746288 c -0.147675,-0.0668 -0.3096,-0.198245 -0.359833,-0.292107 -0.144569,-0.270129 -0.107332,-0.731281 0.07808,-0.966999 0.09318,-0.118458 0.28079,-0.46361 0.416914,-0.767004 0.270306,-0.602461 0.430197,-0.733786 0.893396,-0.733786 0.247414,0 0.386764,0.07599 0.732626,0.399501 0.492155,0.460353 0.666313,0.75427 0.666313,1.124499 0,0.41548 -0.20125,0.697409 -0.721922,1.011333 -0.561956,0.338814 -1.2521,0.429681 -1.705578,0.224563 z m -2.815568,-0.828936 c -0.760962,-0.396576 -0.89113,-1.213887 -0.317731,-1.995012 0.332322,-0.452713 0.563187,-1.225451 0.562654,-1.883281 -3.66e-4,-0.452821 -0.191897,-1.56365 -0.373338,-2.165271 -0.14634,-0.485234 -0.664178,-1.319563 -1.030519,-1.660351 -0.350583,-0.326129 -1.583539,-0.892003 -2.276331,-1.044739 -0.325967,-0.07186 -0.728096,-0.160201 -0.893621,-0.196305 -0.518252,-0.113039 -2.748919,0.109406 -3.483411,0.34737 -0.704421,0.228221 -1.68736,0.796314 -1.995044,1.153043 -0.522303,0.605557 -0.969276,1.404858 -1.331423,2.380919 -0.227848,0.614097 -0.485177,1.155244 -0.613052,1.28921 -0.462306,0.484326 -1.157094,0.50805 -1.670756,0.05705 -0.577248,-0.506831 -0.583633,-1.011182 -0.03044,-2.404592 0.557776,-1.404957 1.087759,-2.377017 1.529916,-2.806074 0.221192,-0.214638 0.402167,-0.41722 0.402167,-0.450182 0,-0.03296 0.200025,-0.192738 0.4445,-0.355058 1.921582,-1.27584 2.760222,-1.547634 5.228166,-1.69439 1.442908,-0.0858 1.508635,-0.08238 2.5126,0.130698 2.96089,0.628418 4.661236,1.949053 5.512205,4.281255 0.529908,1.452287 0.727717,3.194638 0.486692,4.286904 -0.481909,2.183892 -1.569852,3.298622 -2.663232,2.728807 z m 3.920431,-3.153286 c -0.44383,-0.193166 -0.54003,-0.417157 -0.54003,-1.257412 0,-0.864122 0.07097,-1.043804 0.479743,-1.2146 0.433479,-0.181119 0.757439,-0.04265 1.238307,0.529279 0.526755,0.626508 0.545514,0.96978 0.08112,1.484425 -0.277477,0.3075 -0.727145,0.586736 -0.928614,0.576653 -0.03642,-0.0018 -0.185156,-0.05508 -0.330523,-0.118345 z M 23.959227,29.039524 c -0.363702,-0.319335 -0.533762,-0.81674 -0.60807,-1.778535 -0.05281,-0.683535 -0.04453,-0.737424 0.147635,-0.960829 0.272048,-0.316274 0.805265,-0.376653 1.620859,-0.183539 0.660442,0.156379 0.825192,0.245722 0.976307,0.529452 0.269242,0.505521 -0.114143,1.411494 -1.016824,2.402847 -0.313368,0.344151 -0.721136,0.34073 -1.119907,-0.0094 z m 18.320037,-0.411121 c -0.172868,-0.181722 -0.338842,-0.428167 -0.368832,-0.547655 -0.02999,-0.119489 -0.187355,-0.437533 -0.349701,-0.706764 -0.47199,-0.782739 -0.373807,-1.3368 0.276152,-1.558361 0.174481,-0.05948 0.628705,-0.110018 1.009388,-0.112313 0.769407,-0.0046 1.062934,0.130024 1.288786,0.591251 0.105192,0.214822 0.09835,0.302913 -0.0619,0.796719 -0.09909,0.305356 -0.24073,0.754092 -0.314744,0.997193 -0.159744,0.524682 -0.518855,0.870332 -0.904227,0.870332 -0.192824,0 -0.342369,-0.08594 -0.574918,-0.330402 z m -15.92874,-2.96327 c -0.143801,-0.113489 -0.276752,-0.353141 -0.368603,-0.664423 -0.07902,-0.267798 -0.177826,-0.597365 -0.219569,-0.732372 -0.04174,-0.135007 -0.0759,-0.467781 -0.0759,-0.739498 0,-0.426328 0.03388,-0.531921 0.247208,-0.770532 0.222553,-0.248926 0.292708,-0.276086 0.703432,-0.272332 0.250923,0.0023 0.587355,0.0554 0.747625,0.118016 0.505575,0.19752 1.320053,0.761325 1.421517,0.984015 0.274841,0.60321 -0.06119,1.228689 -0.98261,1.829019 -0.65795,0.428672 -1.141188,0.510061 -1.473103,0.248107 z m 13.762245,-0.230674 c -0.181123,-0.12229 -0.467004,-0.346106 -0.63529,-0.497367 -0.168287,-0.151262 -0.501179,-0.339858 -0.73976,-0.419102 -0.501208,-0.166475 -0.774598,-0.464159 -0.774598,-0.84343 0,-0.417787 0.212753,-0.625166 1.045528,-1.019115 1.13307,-0.536005 1.390912,-0.600182 1.771855,-0.441014 0.404424,0.16898 0.619637,0.535652 0.742733,1.265444 0.163193,0.967521 -0.02052,1.839497 -0.432425,2.052503 -0.347811,0.179861 -0.604722,0.154139 -0.978043,-0.09792 z M 29.975355,23.782918 c -0.292126,-0.169809 -0.382244,-0.562474 -0.308326,-1.343446 0.07817,-0.82595 0.150561,-1.050886 0.454382,-1.411957 0.350354,-0.416371 0.637021,-0.495104 1.164623,-0.319863 0.787267,0.261488 1.849962,1.58205 1.72628,2.145169 -0.09829,0.447493 -0.372677,0.602527 -1.455692,0.822482 -1.107646,0.224957 -1.350919,0.241513 -1.581267,0.107615 z m 5.617099,-0.194778 c -0.868466,-0.165849 -1.338438,-0.411815 -1.492811,-0.781281 -0.124112,-0.297042 -0.119769,-0.340743 0.08638,-0.869243 0.119385,-0.306062 0.278701,-0.754041 0.354036,-0.995508 0.07899,-0.253197 0.271452,-0.584697 0.454678,-0.783167 0.279569,-0.302828 0.362736,-0.344135 0.692871,-0.344135 0.463392,0 0.682823,0.147803 0.979951,0.66007 0.127051,0.219045 0.372794,0.619402 0.546095,0.889684 0.522176,0.814388 0.527554,1.768917 0.01225,2.174255 -0.252919,0.198946 -0.768448,0.214513 -1.633453,0.04932 z"
         id="path3" /><path
         style="fill:url(#gradient) #4c67ff;"
         d="m 29.962121,37.078972 c -3.212808,-0.124661 -4.245428,-0.212686 -4.54025,-0.387029 -0.665719,-0.393672 -1.006621,-1.350646 -0.817176,-2.29396 0.07617,-0.379259 0.167709,-0.550207 0.440779,-0.823112 0.53772,-0.537396 1.070114,-0.760864 1.826314,-0.766582 l 0.635,-0.0048 0.191304,-0.345965 c 0.30965,-0.559989 0.862552,-1.009046 1.475487,-1.198362 0.836744,-0.258444 1.387881,-0.300322 2.016209,-0.153199 l 0.550333,0.128861 0.508,-0.49877 c 0.326746,-0.320809 0.719463,-0.598461 1.100667,-0.778175 0.554742,-0.261526 0.649553,-0.279249 1.481666,-0.276969 0.775635,0.0021 0.949377,0.03044 1.362473,0.222033 0.727271,0.337308 1.104178,0.811481 1.489454,1.873833 0.545862,1.505143 0.182924,3.736527 -0.724563,4.454699 -0.410942,0.325214 -1.200091,0.643699 -1.873364,0.756054 -0.807291,0.13472 -2.998758,0.173842 -5.122333,0.09145 z m 11.838812,-0.872181 c -0.317457,-0.273065 -0.32395,-0.740286 -0.01603,-1.153574 0.12078,-0.16211 0.287728,-0.477587 0.370996,-0.701061 0.273992,-0.735336 0.803499,-0.937069 1.322502,-0.503851 1.12216,0.936681 1.187976,1.604483 0.219806,2.230242 -0.467279,0.302017 -0.562218,0.330925 -1.086824,0.330925 -0.484279,0 -0.611933,-0.03193 -0.81045,-0.202681 z m -2.710575,-0.724439 c -0.426261,-0.259909 -0.661982,-0.829955 -0.531431,-1.285161 0.04179,-0.145722 0.211409,-0.461576 0.376925,-0.701898 0.446028,-0.647613 0.610206,-1.529756 0.465124,-2.499148 -0.222849,-1.488995 -0.780532,-2.737925 -1.449888,-3.24702 -0.445939,-0.33917 -1.648641,-0.888676 -2.175825,-0.994119 -0.263528,-0.05271 -0.631542,-0.128581 -0.817809,-0.168606 -0.456606,-0.09811 -2.672762,0.0412 -3.281216,0.206274 -1.883778,0.511059 -2.857472,1.467075 -3.687595,3.620648 -0.505999,1.312702 -0.54072,1.372523 -0.89389,1.540114 -0.598333,0.283927 -1.297012,0.0823 -1.598086,-0.461173 -0.313912,-0.566649 -0.0021,-1.726963 1.004172,-3.736588 0.38852,-0.775921 1.098018,-1.587517 1.767949,-2.02236 1.719258,-1.115949 2.697725,-1.424643 5.08,-1.60268 1.264591,-0.09451 1.274867,-0.09384 2.412999,0.158164 1.222887,0.270764 2.118221,0.593987 2.954103,1.066456 0.749615,0.423707 0.811679,0.47437 1.368039,1.116736 0.53433,0.61693 1.003278,1.427277 1.263259,2.182927 0.343761,0.999157 0.659758,3.284455 0.518021,3.746333 -0.0406,0.132305 -0.123011,0.469154 -0.183133,0.748554 -0.21381,0.993612 -0.87227,2.080725 -1.437249,2.372887 -0.334262,0.172854 -0.833431,0.155412 -1.154469,-0.04034 z m 3.766193,-3.296949 c -0.272663,-0.243625 -0.273918,-0.248463 -0.276502,-1.065635 -0.0025,-0.795908 0.0046,-0.827121 0.234959,-1.025264 0.156006,-0.134209 0.342194,-0.204365 0.542369,-0.204365 0.258465,0 0.368044,0.06759 0.720639,0.4445 0.714469,0.763739 0.72665,1.088131 0.06413,1.707837 -0.515503,0.482193 -0.862694,0.520792 -1.285599,0.142927 z M 23.973592,29.021885 c -0.30416,-0.250067 -0.447106,-0.627566 -0.569064,-1.502818 -0.112134,-0.804744 -0.05257,-1.094809 0.267314,-1.301766 0.345069,-0.223252 0.640881,-0.244664 1.273662,-0.09219 0.806596,0.194354 1.033701,0.317108 1.162657,0.628435 0.09307,0.224695 0.08195,0.324743 -0.08601,0.773859 -0.106093,0.283691 -0.310753,0.66437 -0.454799,0.845952 -0.144046,0.181583 -0.350524,0.444744 -0.458841,0.584801 -0.163295,0.211145 -0.257313,0.254577 -0.550333,0.254229 -0.240694,-2.87e-4 -0.427124,-0.06104 -0.58459,-0.1905 z m 18.457432,-0.238223 c -0.08054,-0.04693 -0.314093,-0.417246 -0.519014,-0.822925 -0.204921,-0.405679 -0.437257,-0.861753 -0.516303,-1.013497 -0.28972,-0.556178 -0.0019,-1.004625 0.736607,-1.147841 0.964384,-0.18701 1.67304,-0.04346 1.893903,0.383642 0.146595,0.283484 0.126305,0.552078 -0.09136,1.209431 -0.0771,0.232833 -0.184653,0.575733 -0.239011,0.762 -0.141095,0.483479 -0.404251,0.720239 -0.797041,0.717092 -0.176741,-0.0014 -0.387242,-0.04097 -0.467778,-0.0879 z M 26.473838,25.701685 c -0.237255,-0.103173 -0.293401,-0.194889 -0.451489,-0.737519 -0.0993,-0.340832 -0.215494,-0.730154 -0.258217,-0.865161 -0.186246,-0.588553 -0.02483,-1.256281 0.350631,-1.450439 0.508091,-0.262744 1.21368,-0.1128 2.089286,0.443992 0.762579,0.484918 0.871239,0.988776 0.354058,1.641771 -0.300753,0.379731 -1.035546,0.89335 -1.446766,1.011286 -0.340838,0.09775 -0.306207,0.100138 -0.637503,-0.04393 z m 13.902283,-0.166413 c -0.1397,-0.06243 -0.449016,-0.282296 -0.687368,-0.488586 -0.250989,-0.217227 -0.654928,-0.455858 -0.959839,-0.567034 -0.449179,-0.163779 -0.545,-0.236309 -0.652686,-0.494037 -0.107146,-0.256438 -0.109236,-0.346646 -0.01383,-0.597088 0.100356,-0.26343 0.21128,-0.340364 1.03613,-0.718631 1.160273,-0.532088 1.524952,-0.585941 1.88967,-0.279051 0.14609,0.122926 0.314164,0.36513 0.373499,0.538231 0.118929,0.346959 0.152559,1.789472 0.05024,2.155158 -0.11366,0.406237 -0.631508,0.631729 -1.035822,0.451038 z m -10.256774,-1.74042 c -0.374463,-0.151115 -0.462274,-0.406391 -0.407981,-1.186046 0.02756,-0.395817 0.107258,-0.879817 0.177098,-1.075555 0.161631,-0.452998 0.627103,-0.871779 0.968976,-0.871779 0.324128,0 0.886989,0.280864 1.248435,0.622961 0.405892,0.384163 0.861913,1.17115 0.861913,1.487463 0,0.351593 -0.309588,0.657653 -0.731374,0.723041 -0.179828,0.02788 -0.65265,0.125653 -1.050715,0.217278 -0.804372,0.185146 -0.81105,0.185664 -1.066352,0.08264 z m 6.02344,-0.165551 c -0.09313,-0.04249 -0.31467,-0.07994 -0.492304,-0.08321 -0.414819,-0.0076 -1.146623,-0.30861 -1.391529,-0.57229 -0.223263,-0.240378 -0.245895,-0.604948 -0.05988,-0.964652 0.07184,-0.138921 0.209163,-0.508504 0.305166,-0.821296 0.217992,-0.710248 0.645413,-1.26117 1.035181,-1.334291 0.451843,-0.08477 0.824103,0.127639 1.063628,0.60689 0.113442,0.226979 0.272058,0.488888 0.352479,0.582021 0.621222,0.719414 0.788924,1.842607 0.348683,2.335322 -0.18266,0.204433 -0.320548,0.270972 -0.613833,0.296214 -0.208039,0.0179 -0.454453,-0.0022 -0.547587,-0.04471 z"
         id="path2" /><path
         style="fill:url(#gradient) #4c67ff;"
         d="m 31.147454,37.035059 c -0.2794,-0.01471 -1.5748,-0.0694 -2.878666,-0.121535 -1.980334,-0.07918 -2.42965,-0.120612 -2.728895,-0.251617 -1.038215,-0.454515 -1.274518,-2.390091 -0.381851,-3.127767 0.56143,-0.463951 1.014559,-0.636785 1.713746,-0.653665 0.34925,-0.0084 0.66062,-0.01796 0.691934,-0.02117 0.03131,-0.0032 0.09849,-0.131742 0.149273,-0.285627 0.121473,-0.368067 0.713568,-0.939764 1.190793,-1.149769 0.686501,-0.302098 1.426981,-0.390819 2.225321,-0.266627 l 0.707158,0.110007 0.442712,-0.468103 c 0.277123,-0.293016 0.654995,-0.573836 1.01026,-0.750787 0.53919,-0.268559 0.614084,-0.282749 1.498882,-0.283974 0.697052,-9.65e-4 1.03082,0.0371 1.32682,0.151329 0.461758,0.178192 1.014814,0.739159 1.246246,1.264072 0.08761,0.19872 0.227037,0.51371 0.309827,0.699976 0.107497,0.241854 0.15989,0.621159 0.183277,1.326868 0.07273,2.194684 -0.671669,3.287724 -2.492814,3.660318 -0.562464,0.115076 -3.212823,0.220781 -4.214023,0.168068 z m 11.185485,-0.705588 c -0.740585,-0.102674 -0.925754,-0.59897 -0.472855,-1.267365 0.139268,-0.205535 0.297781,-0.522448 0.352251,-0.704252 0.119357,-0.398378 0.423395,-0.657716 0.771084,-0.657716 0.198976,0 0.364967,0.108839 0.743889,0.487761 0.680803,0.680804 0.756923,1.142108 0.264888,1.6053 -0.234181,0.220454 -1.007759,0.623079 -1.160742,0.604133 -0.04657,-0.0058 -0.270899,-0.0363 -0.498515,-0.06786 z m -3.25308,-0.93817 c -0.528515,-0.322226 -0.66351,-1.116669 -0.272645,-1.60451 0.324053,-0.404453 0.521853,-0.864965 0.642609,-1.496099 0.10508,-0.549203 0.104981,-0.731983 -7.54e-4,-1.385722 -0.178326,-1.102561 -0.421381,-1.837751 -0.800404,-2.421055 -0.400124,-0.615778 -0.706317,-0.887012 -1.392187,-1.233238 -1.238599,-0.625243 -2.310837,-0.834017 -3.823024,-0.744376 -1.593694,0.09447 -2.439045,0.326556 -3.41837,0.938483 -0.919588,0.5746 -1.509162,1.411546 -2.080449,2.953355 -0.21568,0.582083 -0.438278,1.117231 -0.494663,1.189218 -0.329571,0.420767 -1.035171,0.553276 -1.496145,0.280972 -0.673552,-0.397876 -0.681108,-1.151014 -0.02707,-2.697857 0.598951,-1.416557 0.966979,-2.058567 1.48631,-2.592809 0.509199,-0.523818 0.663407,-0.641207 1.670052,-1.271308 1.004959,-0.629046 2.22077,-0.945354 4.199547,-1.092565 1.345084,-0.100068 1.377579,-0.0984 2.443438,0.125025 1.445135,0.302935 2.711301,0.813623 3.562326,1.436807 0.80113,0.586647 1.625693,1.812836 2.026693,3.01385 0.260286,0.779569 0.351631,1.254099 0.470725,2.445372 0.08806,0.88086 0.0819,0.966934 -0.128904,1.800832 -0.254637,1.007298 -0.648834,1.773528 -1.141309,2.21845 -0.292181,0.263968 -0.399888,0.308633 -0.743594,0.308363 -0.253634,-2e-4 -0.505324,-0.06336 -0.682184,-0.171188 z m 3.793013,-3.287718 c -0.228539,-0.22854 -0.24204,-0.282646 -0.24463,-0.980373 -0.0025,-0.670305 0.01618,-0.757405 0.202221,-0.943444 0.2276,-0.2276 0.680862,-0.277077 0.908116,-0.09913 0.07434,0.05821 0.291168,0.289125 0.481849,0.513149 0.481191,0.565333 0.469587,0.806313 -0.06455,1.340446 -0.344467,0.344467 -0.462373,0.411238 -0.726179,0.411238 -0.233542,0 -0.37746,-0.06252 -0.556831,-0.241889 z M 24.106811,29.038706 c -0.343722,-0.220199 -0.526329,-0.68229 -0.642508,-1.625878 -0.08567,-0.69583 -0.08034,-0.762317 0.07839,-0.976188 0.256251,-0.345284 0.656515,-0.411753 1.441207,-0.23933 0.3631,0.07978 0.744135,0.200073 0.846746,0.267306 0.413393,0.270866 0.272801,1.09165 -0.321992,1.87981 -0.692984,0.918272 -0.895576,1.018608 -1.401841,0.69428 z M 42.590515,28.763561 C 42.405759,28.684624 42.23301,28.43697 41.849682,27.701496 41.57474,27.173977 41.349787,26.65474 41.349787,26.547635 c 0,-0.432869 0.29012,-0.59846 1.356288,-0.774124 0.379512,-0.06253 0.972778,0.09569 1.196075,0.318991 0.206678,0.206678 0.185925,0.547656 -0.09136,1.50106 -0.2483,0.85374 -0.378787,1.077173 -0.693064,1.186731 -0.148063,0.05161 -0.273046,0.09213 -0.277739,0.09003 -0.0047,-0.0021 -0.116955,-0.05014 -0.249471,-0.106759 z M 26.490788,25.644552 c -0.227848,-0.134926 -0.269672,-0.20784 -0.430054,-0.749746 -0.0758,-0.256117 -0.171972,-0.576128 -0.213716,-0.711135 -0.175841,-0.568709 -0.06192,-1.222683 0.255433,-1.466339 0.255349,-0.196051 0.998985,-0.128905 1.561566,0.141001 0.770127,0.369479 1.072784,0.655559 1.127152,1.065415 0.04022,0.303233 0.0079,0.388176 -0.290136,0.762 -0.572154,0.717696 -1.594205,1.205172 -2.010245,0.958804 z m 13.927666,-0.132288 c -0.06985,-0.02558 -0.347379,-0.235871 -0.616731,-0.467317 -0.285882,-0.24565 -0.714197,-0.507558 -1.028996,-0.629216 -0.579609,-0.223997 -0.796926,-0.504716 -0.692946,-0.895115 0.086,-0.322872 0.151103,-0.372868 1.02634,-0.788117 1.29117,-0.612586 1.782999,-0.596968 2.128982,0.0676 0.208907,0.401273 0.264158,1.860902 0.08652,2.285741 -0.164879,0.394327 -0.525655,0.564663 -0.903171,0.42642 z m -10.4678,-1.933562 c -0.21104,-0.21104 -0.214194,-0.23221 -0.154537,-1.037167 0.07178,-0.968486 0.130841,-1.153952 0.484139,-1.520229 0.594506,-0.616347 1.509446,-0.220826 2.336591,1.010088 0.428574,0.637781 0.309771,1.262883 -0.260739,1.371927 -0.10596,0.02025 -0.561764,0.116472 -1.0129,0.21382 -1.042228,0.224899 -1.131686,0.222429 -1.392554,-0.03844 z m 6.107467,-0.03856 c -0.09313,-0.04002 -0.307468,-0.07544 -0.476298,-0.07872 -0.405665,-0.0079 -1.224722,-0.375679 -1.347522,-0.605132 -0.124604,-0.232824 -0.07275,-0.528409 0.26206,-1.493771 0.431227,-1.243375 0.952622,-1.679094 1.63643,-1.36753 0.1153,0.05253 0.328651,0.309709 0.474112,0.5715 0.145461,0.26179 0.39566,0.685532 0.555996,0.941649 0.258149,0.412358 0.291562,0.531836 0.291872,1.043679 3.18e-4,0.526196 -0.02184,0.6002 -0.247137,0.8255 -0.2003,0.2003 -0.317338,0.246353 -0.613834,0.241537 -0.20149,-0.0033 -0.442546,-0.0387 -0.535679,-0.07872 z"
         id="path1" /></g></g></svg>
