<?xml version="1.0" standalone="no"?>
<!DOCTYPE svg PUBLIC "-//W3C//DTD SVG 20010904//EN"
 "http://www.w3.org/TR/2001/REC-SVG-20010904/DTD/svg10.dtd">
<svg version="1.0" xmlns="http://www.w3.org/2000/svg"
 width="700.000000pt" height="700.000000pt" viewBox="0 0 700.000000 700.000000"
 preserveAspectRatio="xMidYMid meet">
<metadata>
Created by potrace 1.14, written by Peter Selinger 2001-2017
</metadata>
<g transform="translate(0.000000,700.000000) scale(0.100000,-0.100000)"
fill="#000000" stroke="none">
<path d="M4008 6129 c-81 -12 -152 -52 -225 -126 -86 -86 -129 -168 -192 -359
-27 -82 -65 -186 -85 -231 -65 -148 -56 -257 29 -348 96 -101 303 -192 477
-211 103 -10 113 -12 158 -24 83 -23 218 -12 306 25 52 22 129 100 155 158 20
45 24 70 26 183 3 215 -6 241 -206 576 -133 222 -174 277 -235 313 -57 33
-150 53 -208 44z"/>
<path d="M2493 5871 c-43 -11 -110 -53 -158 -99 -130 -124 -170 -225 -194
-482 -17 -185 -15 -286 9 -336 34 -70 93 -128 160 -158 75 -34 131 -35 260 -6
52 12 102 23 110 25 62 14 273 55 309 60 63 9 160 56 200 96 96 98 105 234 26
390 -18 35 -99 159 -132 200 -43 56 -182 187 -233 220 -116 76 -266 113 -357
90z"/>
<path d="M5458 5415 c-2 -2 -23 -6 -48 -9 -41 -5 -81 -18 -195 -64 -80 -31
-132 -55 -263 -119 -206 -100 -233 -122 -267 -216 -30 -83 -29 -181 3 -244 46
-89 145 -157 302 -208 48 -15 193 -113 225 -151 25 -29 186 -143 218 -153 100
-33 265 -3 328 60 45 45 82 150 94 264 11 103 3 434 -10 456 -2 3 -7 21 -10
40 -29 176 -174 328 -327 342 -26 3 -48 3 -50 2z"/>
<path d="M1172 5304 c-166 -43 -253 -179 -247 -391 4 -174 93 -494 168 -608
58 -88 126 -118 267 -118 61 0 102 6 145 22 32 11 63 21 68 21 17 0 -57 -87
-172 -200 -87 -86 -125 -132 -150 -182 -19 -37 -38 -65 -41 -63 -4 2 -10 43
-13 90 -9 122 -61 220 -141 262 -43 23 -182 65 -211 64 -2 0 -19 5 -37 10 -18
6 -49 13 -68 15 -19 3 -41 7 -48 10 -8 2 -49 7 -91 10 -133 10 -234 -26 -317
-115 -57 -63 -66 -86 -66 -181 2 -538 136 -805 408 -816 118 -5 193 34 270
140 76 104 95 127 104 121 12 -8 -6 -75 -61 -224 -41 -111 -88 -250 -103 -306
-8 -29 -18 -108 -20 -156 -10 -208 145 -399 359 -444 55 -11 75 -11 130 0 74
16 170 59 233 105 51 39 81 98 212 425 209 522 325 687 623 880 129 84 309
162 438 191 54 12 69 15 124 25 75 14 89 16 145 23 210 28 636 28 770 1 14 -3
45 -8 70 -11 65 -9 252 -58 340 -89 156 -56 350 -164 436 -242 123 -113 256
-367 328 -628 26 -94 30 -112 46 -210 5 -33 12 -78 16 -100 9 -53 9 -247 0
-310 -26 -185 -58 -263 -199 -474 -39 -59 -54 -130 -52 -241 4 -173 53 -276
165 -351 90 -60 140 -74 260 -74 98 1 110 3 173 33 216 105 427 469 519 898
32 153 32 487 -1 704 -44 286 -115 535 -217 755 -15 33 -28 62 -28 65 -1 3
-23 46 -50 95 -150 276 -352 511 -553 641 -114 74 -449 235 -602 289 -68 24
-197 61 -241 69 -14 2 -52 11 -85 19 -203 52 -445 90 -565 90 -50 0 -250 -11
-331 -18 -108 -10 -175 -16 -199 -20 -14 -2 -65 -9 -115 -15 -109 -13 -195
-30 -385 -77 -316 -77 -468 -140 -660 -273 -41 -28 -90 -51 -90 -42 0 4 32 53
71 107 118 165 145 251 114 362 -19 71 -40 105 -100 166 -186 187 -550 320
-743 271z"/>
<path d="M6055 4333 c-238 -41 -356 -118 -384 -251 -6 -29 -8 -69 -5 -89 21
-133 212 -517 326 -657 44 -55 84 -77 169 -95 64 -14 143 -1 204 34 93 54 153
162 215 388 22 78 50 174 64 214 58 171 -6 340 -158 412 -119 57 -270 72 -431
44z"/>
<path d="M3510 3129 c-65 -12 -185 -57 -260 -97 -60 -32 -178 -108 -190 -121
-3 -3 -36 -33 -75 -66 -38 -33 -84 -73 -101 -90 -85 -82 -73 -77 -150 -61 -39
8 -83 18 -99 21 -49 11 -265 13 -334 4 -269 -38 -431 -108 -610 -265 -75 -66
-128 -129 -159 -190 -11 -22 -27 -46 -35 -53 -9 -7 -56 -14 -109 -16 -257 -12
-389 -55 -553 -180 -201 -153 -267 -298 -260 -570 4 -163 39 -282 116 -396 98
-145 212 -212 399 -234 25 -3 61 -8 80 -10 76 -10 253 -23 390 -30 52 -3 149
-7 215 -10 66 -3 158 -7 205 -10 549 -27 1533 -27 1677 -1 10 2 54 7 98 10 99
9 286 49 380 83 250 90 424 231 509 414 54 115 104 279 120 394 3 22 8 60 12
85 17 124 7 384 -21 515 -52 247 -173 504 -308 652 -98 106 -247 184 -402 209
-20 3 -47 8 -59 11 -38 9 -430 11 -476 2z"/>
<path d="M6297 3069 c-92 -21 -180 -86 -216 -162 -46 -96 -48 -384 -5 -537 24
-86 125 -173 239 -207 98 -30 221 22 343 144 120 121 145 171 143 282 -2 91
-6 106 -43 168 -47 77 -229 267 -281 292 -48 23 -125 32 -180 20z"/>
<path d="M6134 1926 c-60 -14 -143 -103 -188 -201 -37 -81 -71 -148 -155 -308
-44 -85 -46 -93 -46 -170 0 -68 4 -91 25 -131 31 -61 99 -120 170 -147 68 -27
217 -33 306 -14 195 42 395 178 461 313 53 109 32 234 -64 366 -74 101 -230
257 -283 283 -40 19 -164 24 -226 9z"/>
</g>
</svg>
